<svg width="166" height="226" viewBox="0 0 166 226" fill="none" xmlns="http://www.w3.org/2000/svg">
<path d="M139.154 7.59227C124.086 2.69649 104.179 0 83.101 0C62.0218 0 42.1159 2.69649 27.0483 7.59227C4.85351 14.8045 0.194824 24.462 0.194824 31.2934V51.9624C0.194824 58.7937 4.85351 68.4521 27.0483 75.6635C36.5381 78.7471 47.9488 80.9561 60.3613 82.1707C63.2867 104.054 64.0556 120.624 62.6671 139.712C44.2181 144.411 32.5256 155.062 32.5256 167.537C32.5256 184.531 54.7409 197.842 83.101 197.842C111.461 197.842 133.677 184.53 133.677 167.537C133.677 155.05 121.959 144.388 103.478 139.697C102.032 120.614 102.821 104.59 105.837 82.1716C118.25 80.957 129.662 78.748 139.152 75.6643C161.347 68.4521 166.005 58.7946 166.005 51.9632V31.2934C166.007 24.4611 161.347 14.8036 139.154 7.59227ZM31.0456 19.8663C44.8564 15.379 63.3427 12.9071 83.101 12.9071C102.859 12.9071 121.345 15.379 135.156 19.8663C148.311 24.1406 153.085 29.0417 153.085 31.2934C153.085 33.545 148.311 38.4461 135.156 42.7213C121.346 47.2086 102.858 49.6805 83.101 49.6805C63.3436 49.6805 44.8573 47.2086 31.0456 42.7213C17.8909 38.447 13.1167 33.5459 13.1167 31.2934C13.1167 29.0408 17.8918 24.1406 31.0456 19.8663ZM120.754 167.536C120.754 175.749 104.651 184.934 83.1001 184.934C61.5498 184.934 45.4466 175.749 45.4466 167.536C45.4466 162.275 51.7951 156.921 61.3418 153.584C60.8733 157.632 60.324 161.842 59.6911 166.283C59.3569 168.624 60.3311 170.959 62.2289 172.37C66.0325 175.199 74.5658 176.612 83.0992 176.612C91.6326 176.612 100.169 175.198 103.97 172.37C105.868 170.957 106.842 168.622 106.508 166.283C105.869 161.81 105.315 157.599 104.842 153.577C114.4 156.914 120.754 162.274 120.754 167.536ZM93.0112 163.013C87.7179 163.993 78.4325 163.993 73.1836 163.029C77.1987 132.985 77.3054 112.576 73.5089 83.0613C76.6716 83.1865 79.8681 83.2575 83.0992 83.2575C86.3277 83.2575 89.525 83.1865 92.6877 83.0622C88.837 112.856 88.9419 132.648 93.0112 163.013ZM135.156 63.3894C121.345 67.8776 102.858 70.3486 83.101 70.3486C63.3436 70.3486 44.8573 67.8767 31.0456 63.3894C17.8909 59.1151 13.1167 54.214 13.1167 51.9615V48.9888C16.7353 51.0931 21.2998 53.1255 27.0483 54.9936C42.115 59.8894 62.0218 62.5858 83.101 62.5858C104.179 62.5858 124.086 59.8894 139.154 54.9936C144.902 53.1255 149.467 51.0931 153.085 48.9888V51.9615C153.084 54.214 148.309 59.1151 135.156 63.3894Z" fill="#DDD9D9"/>
<path d="M89.0993 33.0383V35.9003H86.3723V40.2473H83.3213V35.9003L73.5743 35.9273V33.0383L81.8363 21.3473H86.3723V33.0383H89.0993ZM76.8953 33.0383H83.3213V24.1823H83.0783L76.8953 33.0383Z" fill="white"/>
<path d="M82.1771 214.73C80.0291 214.73 78.3334 213.072 78.3334 210.943C78.3334 208.795 80.0291 207.137 82.1771 207.137C84.2875 207.137 86.0021 208.795 86.0021 210.943C86.0021 213.091 84.3063 214.73 82.1771 214.73ZM74.7157 212.884V207.363H76.8637V220.553H74.3388L67.7252 210.359L67.9325 215.032V220.553H65.8034V207.363H68.3282L74.9041 217.538L74.7157 212.884ZM82.1771 208.908C81.0278 208.908 80.1422 209.813 80.1422 210.943C80.1422 212.093 81.0278 212.978 82.1771 212.978C83.3077 212.978 84.1744 212.093 84.1744 210.943C84.1744 209.813 83.3077 208.908 82.1771 208.908ZM78.5783 217.481V215.861H85.776V217.481H78.5783ZM78.5783 220.553V218.932H85.776V220.553H78.5783ZM92.2831 207.363H93.2441V220.553H91.1149V209.85L88.119 211.075V208.984L92.2831 207.363ZM99.5329 207.363H100.494V220.553H98.3647V209.85L95.3688 211.075V208.984L99.5329 207.363Z" fill="white"/>
</svg>
