<svg width="167" height="226" viewBox="0 0 167 226" fill="none" xmlns="http://www.w3.org/2000/svg">
<path d="M139.239 7.59227C124.171 2.69649 104.264 0 83.1859 0C62.1067 0 42.2009 2.69649 27.1332 7.59227C4.93847 14.8045 0.279785 24.462 0.279785 31.2934V51.9624C0.279785 58.7937 4.93847 68.4521 27.1332 75.6635C36.6231 78.7471 48.0338 80.9561 60.4463 82.1707C63.3716 104.054 64.1405 120.624 62.7521 139.712C44.3031 144.411 32.6106 155.062 32.6106 167.537C32.6106 184.531 54.8258 197.842 83.1859 197.842C111.546 197.842 133.762 184.53 133.762 167.537C133.762 155.05 122.044 144.388 103.563 139.697C102.117 120.614 102.906 104.59 105.922 82.1716C118.335 80.957 129.747 78.748 139.237 75.6643C161.432 68.4521 166.09 58.7946 166.09 51.9632V31.2934C166.092 24.4611 161.432 14.8036 139.239 7.59227ZM31.1306 19.8663C44.9413 15.379 63.4276 12.9071 83.1859 12.9071C102.944 12.9071 121.43 15.379 135.241 19.8663C148.396 24.1406 153.17 29.0417 153.17 31.2934C153.17 33.545 148.396 38.4461 135.241 42.7213C121.431 47.2086 102.943 49.6805 83.1859 49.6805C63.4285 49.6805 44.9422 47.2086 31.1306 42.7213C17.9759 38.447 13.2016 33.5459 13.2016 31.2934C13.2016 29.0408 17.9768 24.1406 31.1306 19.8663ZM120.839 167.536C120.839 175.749 104.736 184.934 83.1851 184.934C61.6347 184.934 45.5316 175.749 45.5316 167.536C45.5316 162.275 51.88 156.921 61.4267 153.584C60.9583 157.632 60.409 161.842 59.7761 166.283C59.4418 168.624 60.4161 170.959 62.3138 172.37C66.1174 175.199 74.6508 176.612 83.1842 176.612C91.7175 176.612 100.254 175.198 104.055 172.37C105.953 170.957 106.926 168.622 106.593 166.283C105.954 161.81 105.4 157.599 104.926 153.577C114.485 156.914 120.839 162.274 120.839 167.536ZM93.0962 163.013C87.8028 163.993 78.5175 163.993 73.2686 163.029C77.2837 132.985 77.3904 112.576 73.5939 83.0613C76.7566 83.1865 79.953 83.2575 83.1842 83.2575C86.4126 83.2575 89.61 83.1865 92.7727 83.0622C88.922 112.856 89.0269 132.648 93.0962 163.013ZM135.241 63.3894C121.43 67.8776 102.943 70.3486 83.1859 70.3486C63.4285 70.3486 44.9422 67.8767 31.1306 63.3894C17.9759 59.1151 13.2016 54.214 13.2016 51.9615V48.9888C16.8203 51.0931 21.3848 53.1255 27.1332 54.9936C42.2 59.8894 62.1067 62.5858 83.1859 62.5858C104.264 62.5858 124.171 59.8894 139.239 54.9936C144.987 53.1255 149.552 51.0931 153.17 48.9888V51.9615C153.169 54.214 148.394 59.1151 135.241 63.3894Z" fill="#DDD9D9"/>
<path d="M90.1262 33.9226V36.7846H87.3992V41.1316H84.3482V36.7846L74.6012 36.8116V33.9226L82.8632 22.2316H87.3992V33.9226H90.1262ZM77.9222 33.9226H84.3482V25.0666H84.1052L77.9222 33.9226Z" fill="white"/>
<path d="M82.2616 215.057C80.1136 215.057 78.4178 213.399 78.4178 211.27C78.4178 209.122 80.1136 207.463 82.2616 207.463C84.3719 207.463 86.0866 209.122 86.0866 211.27C86.0866 213.418 84.3908 215.057 82.2616 215.057ZM74.8001 213.21V207.69H76.9481V220.879H74.4233L67.8097 210.685L68.017 215.358V220.879H65.8878V207.69H68.4127L74.9886 217.864L74.8001 213.21ZM82.2616 209.235C81.1122 209.235 80.2267 210.139 80.2267 211.27C80.2267 212.419 81.1122 213.305 82.2616 213.305C83.3921 213.305 84.2589 212.419 84.2589 211.27C84.2589 210.139 83.3921 209.235 82.2616 209.235ZM78.6628 217.808V216.187H85.8605V217.808H78.6628ZM78.6628 220.879V219.259H85.8605V220.879H78.6628ZM92.3676 207.69H93.3286V220.879H91.1994V210.177L88.2035 211.401V209.31L92.3676 207.69ZM99.1275 218.844H105.647V220.879H95.6417V219.353L99.4667 215.999C102.425 213.418 103.179 212.758 103.179 211.59C103.179 210.441 102.293 209.498 100.673 209.498C99.071 209.498 98.1854 210.422 97.9028 211.929H95.7548C96.0562 209.178 98.0347 207.463 100.767 207.463C103.574 207.463 105.327 209.272 105.327 211.496C105.327 213.493 103.932 214.68 101.238 217.035L99.1652 218.825L99.1275 218.844Z" fill="white"/>
</svg>
