<svg width="167" height="226" viewBox="0 0 167 226" fill="none" xmlns="http://www.w3.org/2000/svg">
<path d="M139.343 7.59227C124.276 2.69649 104.369 0 83.2904 0C62.2112 0 42.3054 2.69649 27.2377 7.59227C5.04297 14.8045 0.384277 24.462 0.384277 31.2934V51.9624C0.384277 58.7937 5.04297 68.4521 27.2377 75.6635C36.7276 78.7471 48.1383 80.9561 60.5508 82.1707C63.4761 104.054 64.245 120.624 62.8566 139.712C44.4076 144.411 32.7151 155.062 32.7151 167.537C32.7151 184.531 54.9303 197.842 83.2904 197.842C111.651 197.842 133.867 184.53 133.867 167.537C133.867 155.05 122.148 144.388 103.667 139.697C102.221 120.614 103.011 104.59 106.027 82.1716C118.44 80.957 129.852 78.748 139.341 75.6643C161.536 68.4521 166.195 58.7946 166.195 51.9632V31.2934C166.197 24.4611 161.536 14.8036 139.343 7.59227ZM31.2351 19.8663C45.0458 15.379 63.5321 12.9071 83.2904 12.9071C103.049 12.9071 121.534 15.379 135.346 19.8663C148.501 24.1406 153.275 29.0417 153.275 31.2934C153.275 33.545 148.501 38.4461 135.346 42.7213C121.535 47.2086 103.048 49.6805 83.2904 49.6805C63.533 49.6805 45.0467 47.2086 31.2351 42.7213C18.0804 38.447 13.3061 33.5459 13.3061 31.2934C13.3061 29.0408 18.0812 24.1406 31.2351 19.8663ZM120.944 167.536C120.944 175.749 104.841 184.934 83.2896 184.934C61.7392 184.934 45.636 175.749 45.636 167.536C45.636 162.275 51.9845 156.921 61.5312 153.584C61.0628 157.632 60.5134 161.842 59.8806 166.283C59.5463 168.624 60.5206 170.959 62.4183 172.37C66.2219 175.199 74.7553 176.612 83.2887 176.612C91.822 176.612 100.358 175.198 104.16 172.37C106.058 170.957 107.031 168.622 106.698 166.283C106.059 161.81 105.505 157.599 105.031 153.577C114.589 156.914 120.944 162.274 120.944 167.536ZM93.2007 163.013C87.9073 163.993 78.622 163.993 73.3731 163.029C77.3882 132.985 77.4949 112.576 73.6984 83.0613C76.8611 83.1865 80.0575 83.2575 83.2887 83.2575C86.5171 83.2575 89.7145 83.1865 92.8771 83.0622C89.0265 112.856 89.1313 132.648 93.2007 163.013ZM135.346 63.3894C121.534 67.8776 103.048 70.3486 83.2904 70.3486C63.533 70.3486 45.0467 67.8767 31.2351 63.3894C18.0804 59.1151 13.3061 54.214 13.3061 51.9615V48.9888C16.9248 51.0931 21.4893 53.1255 27.2377 54.9936C42.3045 59.8894 62.2112 62.5858 83.2904 62.5858C104.369 62.5858 124.276 59.8894 139.343 54.9936C145.092 53.1255 149.656 51.0931 153.275 48.9888V51.9615C153.274 54.214 148.499 59.1151 135.346 63.3894Z" fill="#DDD9D9"/>
<path d="M82.1063 29.3335C85.3463 29.3335 88.4243 31.4935 88.4243 35.5705C88.4243 39.7285 85.2383 42.4555 81.2153 42.4555C77.3003 42.4555 74.0333 39.8365 74.0333 35.5435C74.0333 31.9795 76.4093 29.0905 80.8103 23.2315H84.4013L79.1633 30.0895C80.0273 29.6305 80.9183 29.3335 82.1063 29.3335ZM81.2153 39.5395C83.5643 39.5395 85.3463 38.0005 85.3463 35.5705C85.3463 33.1135 83.5373 31.6825 81.2423 31.6825C78.8393 31.6825 77.1113 33.1675 77.1113 35.5975C77.1113 38.0275 78.9203 39.5395 81.2153 39.5395Z" fill="white"/>
<path d="M79.5399 214.73C77.3919 214.73 75.6961 213.072 75.6961 210.943C75.6961 208.795 77.3919 207.137 79.5399 207.137C81.6503 207.137 83.3649 208.795 83.3649 210.943C83.3649 213.091 81.6691 214.73 79.5399 214.73ZM72.0785 212.884V207.363H74.2265V220.553H71.7016L65.088 210.359L65.2953 215.032V220.553H63.1661V207.363H65.691L72.2669 217.538L72.0785 212.884ZM79.5399 208.908C78.3906 208.908 77.505 209.813 77.505 210.943C77.505 212.093 78.3906 212.978 79.5399 212.978C80.6705 212.978 81.5372 212.093 81.5372 210.943C81.5372 209.813 80.6705 208.908 79.5399 208.908ZM75.9411 217.481V215.861H83.1388V217.481H75.9411ZM75.9411 220.553V218.932H83.1388V220.553H75.9411ZM89.6459 207.363H90.6069V220.553H88.4777V209.85L85.4818 211.075V208.984L89.6459 207.363ZM100.796 213.619C102.134 214.109 102.925 215.258 102.925 216.803C102.925 219.29 100.966 220.779 98.1016 220.779C95.4449 220.779 93.2215 219.422 92.92 216.615H95.068C95.3884 218.16 96.5566 218.763 98.0828 218.763C99.8351 218.763 100.777 217.915 100.777 216.615C100.777 215.503 100.118 214.73 98.2712 214.73H96.4812V212.846H97.8944C99.4959 212.846 100.363 212.319 100.363 211.169C100.363 209.982 99.4582 209.153 97.8755 209.153C96.5377 209.153 95.5956 209.662 95.2376 211.132H93.0896C93.4665 208.399 95.4637 207.137 97.932 207.137C100.57 207.137 102.511 208.701 102.511 210.905C102.511 212.111 101.889 213.148 100.796 213.619Z" fill="white"/>
</svg>
