<svg width="167" height="226" viewBox="0 0 167 226" fill="none" xmlns="http://www.w3.org/2000/svg">
<path d="M139.343 7.59227C124.276 2.69649 104.369 0 83.2904 0C62.2112 0 42.3054 2.69649 27.2377 7.59227C5.04297 14.8045 0.384277 24.462 0.384277 31.2934V51.9624C0.384277 58.7937 5.04297 68.4521 27.2377 75.6635C36.7276 78.7471 48.1383 80.9561 60.5508 82.1707C63.4761 104.054 64.245 120.624 62.8566 139.712C44.4076 144.411 32.7151 155.062 32.7151 167.537C32.7151 184.531 54.9303 197.842 83.2904 197.842C111.651 197.842 133.867 184.53 133.867 167.537C133.867 155.05 122.148 144.388 103.667 139.697C102.221 120.614 103.011 104.59 106.027 82.1716C118.44 80.957 129.852 78.748 139.341 75.6643C161.536 68.4521 166.195 58.7946 166.195 51.9632V31.2934C166.197 24.4611 161.536 14.8036 139.343 7.59227ZM31.2351 19.8663C45.0458 15.379 63.5321 12.9071 83.2904 12.9071C103.049 12.9071 121.534 15.379 135.346 19.8663C148.501 24.1406 153.275 29.0417 153.275 31.2934C153.275 33.545 148.501 38.4461 135.346 42.7213C121.535 47.2086 103.048 49.6805 83.2904 49.6805C63.533 49.6805 45.0467 47.2086 31.2351 42.7213C18.0804 38.447 13.3061 33.5459 13.3061 31.2934C13.3061 29.0408 18.0812 24.1406 31.2351 19.8663ZM120.944 167.536C120.944 175.749 104.841 184.934 83.2896 184.934C61.7392 184.934 45.636 175.749 45.636 167.536C45.636 162.275 51.9845 156.921 61.5312 153.584C61.0628 157.632 60.5134 161.842 59.8806 166.283C59.5463 168.624 60.5206 170.959 62.4183 172.37C66.2219 175.199 74.7553 176.612 83.2887 176.612C91.822 176.612 100.358 175.198 104.16 172.37C106.058 170.957 107.031 168.622 106.698 166.283C106.059 161.81 105.505 157.599 105.031 153.577C114.589 156.914 120.944 162.274 120.944 167.536ZM93.2007 163.013C87.9073 163.993 78.622 163.993 73.3731 163.029C77.3882 132.985 77.4949 112.576 73.6984 83.0613C76.8611 83.1865 80.0575 83.2575 83.2887 83.2575C86.5171 83.2575 89.7145 83.1865 92.8771 83.0622C89.0265 112.856 89.1313 132.648 93.2007 163.013ZM135.346 63.3894C121.534 67.8776 103.048 70.3486 83.2904 70.3486C63.533 70.3486 45.0467 67.8767 31.2351 63.3894C18.0804 59.1151 13.3061 54.214 13.3061 51.9615V48.9888C16.9248 51.0931 21.4893 53.1255 27.2377 54.9936C42.3045 59.8894 62.2112 62.5858 83.2904 62.5858C104.369 62.5858 124.276 59.8894 139.343 54.9936C145.092 53.1255 149.656 51.0931 153.275 48.9888V51.9615C153.274 54.214 148.499 59.1151 135.346 63.3894Z" fill="#DDD9D9"/>
<path d="M83.0487 28.3336C86.2887 28.3336 89.3667 30.4936 89.3667 34.5706C89.3667 38.7286 86.1807 41.4556 82.1577 41.4556C78.2427 41.4556 74.9757 38.8366 74.9757 34.5436C74.9757 30.9796 77.3517 28.0906 81.7527 22.2316H85.3437L80.1057 29.0896C80.9697 28.6306 81.8607 28.3336 83.0487 28.3336ZM82.1577 38.5396C84.5067 38.5396 86.2887 37.0006 86.2887 34.5706C86.2887 32.1136 84.4797 30.6826 82.1847 30.6826C79.7817 30.6826 78.0537 32.1676 78.0537 34.5976C78.0537 37.0276 79.8627 38.5396 82.1577 38.5396Z" fill="white"/>
<path d="M82.3661 214.73C80.2181 214.73 78.5223 213.072 78.5223 210.943C78.5223 208.795 80.2181 207.137 82.3661 207.137C84.4764 207.137 86.1911 208.795 86.1911 210.943C86.1911 213.091 84.4953 214.73 82.3661 214.73ZM74.9046 212.884V207.363H77.0526V220.553H74.5278L67.9142 210.359L68.1215 215.032V220.553H65.9923V207.363H68.5172L75.0931 217.538L74.9046 212.884ZM82.3661 208.908C81.2167 208.908 80.3312 209.813 80.3312 210.943C80.3312 212.093 81.2167 212.978 82.3661 212.978C83.4966 212.978 84.3634 212.093 84.3634 210.943C84.3634 209.813 83.4966 208.908 82.3661 208.908ZM78.7673 217.481V215.861H85.965V217.481H78.7673ZM78.7673 220.553V218.932H85.965V220.553H78.7673ZM92.4721 207.363H93.433V220.553H91.3039V209.85L88.308 211.075V208.984L92.4721 207.363ZM106.392 215.522V217.519H104.489V220.553H102.36V217.519L95.5578 217.538V215.522L101.323 207.363H104.489V215.522H106.392ZM97.8754 215.522H102.36V209.342H102.19L97.8754 215.522Z" fill="white"/>
</svg>
