<svg width="166" height="226" viewBox="0 0 166 226" fill="none" xmlns="http://www.w3.org/2000/svg">
<path d="M138.959 7.59227C123.891 2.69649 103.984 0 82.9062 0C61.827 0 41.9211 2.69649 26.8535 7.59227C4.65869 14.8045 0 24.462 0 31.2934V51.9624C0 58.7937 4.65869 68.4521 26.8535 75.6635C36.3433 78.7471 47.754 80.9561 60.1665 82.1707C63.0918 104.054 63.8607 120.624 62.4723 139.712C44.0233 144.411 32.3308 155.062 32.3308 167.537C32.3308 184.531 54.546 197.842 82.9062 197.842C111.266 197.842 133.482 184.53 133.482 167.537C133.482 155.05 121.764 144.388 103.283 139.697C101.837 120.614 102.626 104.59 105.642 82.1716C118.056 80.957 129.467 78.748 138.957 75.6643C161.152 68.4521 165.811 58.7946 165.811 51.9632V31.2934C165.812 24.4611 161.152 14.8036 138.959 7.59227ZM30.8508 19.8663C44.6615 15.379 63.1478 12.9071 82.9062 12.9071C102.664 12.9071 121.15 15.379 134.962 19.8663C148.116 24.1406 152.89 29.0417 152.89 31.2934C152.89 33.545 148.116 38.4461 134.962 42.7213C121.151 47.2086 102.664 49.6805 82.9062 49.6805C63.1487 49.6805 44.6624 47.2086 30.8508 42.7213C17.6961 38.447 12.9218 33.5459 12.9218 31.2934C12.9218 29.0408 17.697 24.1406 30.8508 19.8663ZM120.56 167.536C120.56 175.749 104.456 184.934 82.9053 184.934C61.355 184.934 45.2518 175.749 45.2518 167.536C45.2518 162.275 51.6002 156.921 61.1469 153.584C60.6785 157.632 60.1292 161.842 59.4963 166.283C59.1621 168.624 60.1363 170.959 62.0341 172.37C65.8376 175.199 74.371 176.612 82.9044 176.612C91.4378 176.612 99.9738 175.198 103.776 172.37C105.673 170.957 106.647 168.622 106.313 166.283C105.674 161.81 105.12 157.599 104.647 153.577C114.205 156.914 120.56 162.274 120.56 167.536ZM92.8164 163.013C87.5231 163.993 78.2377 163.993 72.9888 163.029C77.0039 132.985 77.1106 112.576 73.3141 83.0613C76.4768 83.1865 79.6733 83.2575 82.9044 83.2575C86.1328 83.2575 89.3302 83.1865 92.4929 83.0622C88.6422 112.856 88.7471 132.648 92.8164 163.013ZM134.962 63.3894C121.15 67.8776 102.664 70.3486 82.9062 70.3486C63.1487 70.3486 44.6624 67.8767 30.8508 63.3894C17.6961 59.1151 12.9218 54.214 12.9218 51.9615V48.9888C16.5405 51.0931 21.105 53.1255 26.8535 54.9936C41.9202 59.8894 61.827 62.5858 82.9062 62.5858C103.984 62.5858 123.891 59.8894 138.959 54.9936C144.707 53.1255 149.272 51.0931 152.89 48.9888V51.9615C152.89 54.214 148.114 59.1151 134.962 63.3894Z" fill="#DDD9D9"/>
<path d="M79.5864 38.2155H88.9284V41.1315H74.5914V38.9445L80.0724 34.1385C84.3114 30.4395 85.3914 29.4945 85.3914 27.8205C85.3914 26.1735 84.1224 24.8235 81.8004 24.8235C79.5054 24.8235 78.2364 26.1465 77.8314 28.3065H74.7534C75.1854 24.3645 78.0204 21.9075 81.9354 21.9075C85.9584 21.9075 88.4694 24.4995 88.4694 27.6855C88.4694 30.5475 86.4714 32.2485 82.6104 35.6235L79.6404 38.1885L79.5864 38.2155Z" fill="white"/>
<path d="M84.8085 214.73C82.6605 214.73 80.9647 213.072 80.9647 210.943C80.9647 208.795 82.6605 207.137 84.8085 207.137C86.9188 207.137 88.6334 208.795 88.6334 210.943C88.6334 213.091 86.9376 214.73 84.8085 214.73ZM77.347 212.884V207.363H79.495V220.553H76.9702L70.3566 210.359L70.5639 215.032V220.553H68.4347V207.363H70.9595L77.5354 217.538L77.347 212.884ZM84.8085 208.908C83.6591 208.908 82.7735 209.813 82.7735 210.943C82.7735 212.093 83.6591 212.978 84.8085 212.978C85.939 212.978 86.8058 212.093 86.8058 210.943C86.8058 209.813 85.939 208.908 84.8085 208.908ZM81.2096 217.481V215.861H88.4073V217.481H81.2096ZM81.2096 220.553V218.932H88.4073V220.553H81.2096ZM94.9145 207.363H95.8754V220.553H93.7463V209.85L90.7504 211.075V208.984L94.9145 207.363Z" fill="white"/>
</svg>
