<svg width="166" height="226" viewBox="0 0 166 226" fill="none" xmlns="http://www.w3.org/2000/svg">
<path d="M138.959 7.59227C123.891 2.69649 103.984 0 82.9062 0C61.827 0 41.9211 2.69649 26.8535 7.59227C4.65869 14.8045 0 24.462 0 31.2934V51.9623C0 58.7937 4.65869 68.4521 26.8535 75.6635C36.3433 78.7471 47.754 80.9561 60.1665 82.1707C63.0918 104.054 63.8607 120.624 62.4723 139.712C44.0233 144.411 32.3308 155.062 32.3308 167.537C32.3308 184.531 54.546 197.842 82.9062 197.842C111.266 197.842 133.482 184.53 133.482 167.537C133.482 155.05 121.764 144.388 103.283 139.697C101.837 120.614 102.626 104.59 105.642 82.1716C118.056 80.957 129.467 78.7479 138.957 75.6643C161.152 68.4521 165.811 58.7946 165.811 51.9632V31.2934C165.812 24.4611 161.152 14.8036 138.959 7.59227ZM30.8508 19.8663C44.6615 15.379 63.1479 12.9071 82.9062 12.9071C102.664 12.9071 121.15 15.379 134.962 19.8663C148.116 24.1406 152.89 29.0417 152.89 31.2934C152.89 33.545 148.116 38.4461 134.962 42.7213C121.151 47.2086 102.664 49.6805 82.9062 49.6805C63.1487 49.6805 44.6624 47.2086 30.8508 42.7213C17.6961 38.447 12.9218 33.5459 12.9218 31.2934C12.9218 29.0408 17.697 24.1406 30.8508 19.8663ZM120.56 167.536C120.56 175.749 104.456 184.934 82.9053 184.934C61.355 184.934 45.2518 175.749 45.2518 167.536C45.2518 162.275 51.6002 156.921 61.1469 153.584C60.6785 157.632 60.1292 161.842 59.4963 166.283C59.1621 168.624 60.1363 170.959 62.0341 172.37C65.8376 175.199 74.371 176.612 82.9044 176.612C91.4378 176.612 99.9738 175.198 103.776 172.37C105.673 170.957 106.647 168.622 106.313 166.283C105.674 161.81 105.12 157.599 104.647 153.577C114.205 156.914 120.56 162.274 120.56 167.536ZM92.8164 163.013C87.5231 163.993 78.2377 163.993 72.9888 163.029C77.0039 132.985 77.1106 112.576 73.3141 83.0613C76.4768 83.1865 79.6733 83.2575 82.9044 83.2575C86.1328 83.2575 89.3302 83.1865 92.4929 83.0622C88.6422 112.856 88.7471 132.648 92.8164 163.013ZM134.962 63.3894C121.15 67.8776 102.664 70.3486 82.9062 70.3486C63.1487 70.3486 44.6624 67.8767 30.8508 63.3894C17.6961 59.1151 12.9218 54.214 12.9218 51.9615V48.9888C16.5405 51.0931 21.105 53.1255 26.8535 54.9936C41.9202 59.8894 61.827 62.5858 82.9062 62.5858C103.984 62.5858 123.891 59.8894 138.959 54.9936C144.707 53.1255 149.272 51.0931 152.89 48.9888V51.9615C152.89 54.214 148.114 59.1151 134.962 63.3894Z" fill="#DDD9D9"/>
<path d="M89.8459 35.791V38.653H87.1189V43H84.0679V38.653L74.3209 38.68V35.791L82.5829 24.1H87.1189V35.791H89.8459ZM77.6419 35.791H84.0679V26.935H83.8249L77.6419 35.791Z" fill="white"/>
<path d="M82.9237 215.178C80.7757 215.178 79.0799 213.52 79.0799 211.391C79.0799 209.243 80.7757 207.584 82.9237 207.584C85.034 207.584 86.7487 209.243 86.7487 211.391C86.7487 213.539 85.0529 215.178 82.9237 215.178ZM75.4623 213.331V207.811H77.6103V221H75.0854L68.4718 210.806L68.6791 215.479V221H66.5499V207.811H69.0748L75.6507 217.985L75.4623 213.331ZM82.9237 209.356C81.7744 209.356 80.8888 210.26 80.8888 211.391C80.8888 212.54 81.7744 213.425 82.9237 213.425C84.0543 213.425 84.921 212.54 84.921 211.391C84.921 210.26 84.0543 209.356 82.9237 209.356ZM79.3249 217.929V216.308H86.5226V217.929H79.3249ZM79.3249 221V219.38H86.5226V221H79.3249ZM92.5398 218.965H99.0592V221H89.054V219.474L92.879 216.12C95.8372 213.539 96.5909 212.879 96.5909 211.711C96.5909 210.561 95.7053 209.619 94.0849 209.619C92.4833 209.619 91.5977 210.543 91.3151 212.05H89.1671C89.4686 209.299 91.447 207.584 94.1791 207.584C96.9866 207.584 98.7389 209.393 98.7389 211.617C98.7389 213.614 97.3446 214.801 94.6501 217.156L92.5775 218.946L92.5398 218.965Z" fill="white"/>
</svg>
