<svg width="166" height="226" viewBox="0 0 166 226" fill="none" xmlns="http://www.w3.org/2000/svg">
<path d="M88.904 33.9225V36.7845H86.177V41.1315H83.126V36.7845L73.379 36.8115V33.9225L81.641 22.2315H86.177V33.9225H88.904ZM76.7 33.9225H83.126V25.0665H82.883L76.7 33.9225Z" fill="white"/>
<path d="M138.959 7.59227C123.891 2.69649 103.984 0 82.9062 0C61.827 0 41.9211 2.69649 26.8535 7.59227C4.65869 14.8045 0 24.462 0 31.2934V51.9624C0 58.7937 4.65869 68.4521 26.8535 75.6635C36.3433 78.7471 47.754 80.9561 60.1665 82.1707C63.0918 104.054 63.8607 120.624 62.4723 139.712C44.0233 144.411 32.3308 155.062 32.3308 167.537C32.3308 184.531 54.546 197.842 82.9062 197.842C111.266 197.842 133.482 184.53 133.482 167.537C133.482 155.05 121.764 144.388 103.283 139.697C101.837 120.614 102.626 104.59 105.642 82.1716C118.056 80.957 129.467 78.748 138.957 75.6643C161.152 68.4521 165.811 58.7946 165.811 51.9632V31.2934C165.812 24.4611 161.152 14.8036 138.959 7.59227ZM30.8508 19.8663C44.6615 15.379 63.1478 12.9071 82.9062 12.9071C102.664 12.9071 121.15 15.379 134.962 19.8663C148.116 24.1406 152.89 29.0417 152.89 31.2934C152.89 33.545 148.116 38.4461 134.962 42.7213C121.151 47.2086 102.664 49.6805 82.9062 49.6805C63.1487 49.6805 44.6624 47.2086 30.8508 42.7213C17.6961 38.447 12.9218 33.5459 12.9218 31.2934C12.9218 29.0408 17.697 24.1406 30.8508 19.8663ZM120.56 167.536C120.56 175.749 104.456 184.934 82.9053 184.934C61.355 184.934 45.2518 175.749 45.2518 167.536C45.2518 162.275 51.6002 156.921 61.1469 153.584C60.6785 157.632 60.1292 161.842 59.4963 166.283C59.1621 168.624 60.1363 170.959 62.0341 172.37C65.8376 175.199 74.371 176.612 82.9044 176.612C91.4378 176.612 99.9738 175.198 103.776 172.37C105.673 170.957 106.647 168.622 106.313 166.283C105.674 161.81 105.12 157.599 104.647 153.577C114.205 156.914 120.56 162.274 120.56 167.536ZM92.8164 163.013C87.5231 163.993 78.2377 163.993 72.9888 163.029C77.0039 132.985 77.1106 112.576 73.3141 83.0613C76.4768 83.1865 79.6733 83.2575 82.9044 83.2575C86.1328 83.2575 89.3302 83.1865 92.4929 83.0622C88.6422 112.856 88.7471 132.648 92.8164 163.013ZM134.962 63.3894C121.15 67.8776 102.664 70.3486 82.9062 70.3486C63.1487 70.3486 44.6624 67.8767 30.8508 63.3894C17.6961 59.1151 12.9218 54.214 12.9218 51.9615V48.9888C16.5405 51.0931 21.105 53.1255 26.8535 54.9936C41.9202 59.8894 61.827 62.5858 82.9062 62.5858C103.984 62.5858 123.891 59.8894 138.959 54.9936C144.707 53.1255 149.272 51.0931 152.89 48.9888V51.9615C152.89 54.214 148.114 59.1151 134.962 63.3894Z" fill="#DDD9D9"/>
<path d="M82.9242 214.73C80.7762 214.73 79.0804 213.072 79.0804 210.943C79.0804 208.795 80.7762 207.137 82.9242 207.137C85.0345 207.137 86.7492 208.795 86.7492 210.943C86.7492 213.091 85.0534 214.73 82.9242 214.73ZM75.4627 212.884V207.363H77.6107V220.553H75.0859L68.4723 210.359L68.6796 215.032V220.553H66.5504V207.363H69.0753L75.6512 217.538L75.4627 212.884ZM82.9242 208.908C81.7748 208.908 80.8893 209.813 80.8893 210.943C80.8893 212.093 81.7748 212.978 82.9242 212.978C84.0547 212.978 84.9215 212.093 84.9215 210.943C84.9215 209.813 84.0547 208.908 82.9242 208.908ZM79.3254 217.481V215.861H86.5231V217.481H79.3254ZM79.3254 220.553V218.932H86.5231V220.553H79.3254ZM96.9305 213.619C98.2683 214.109 99.0597 215.258 99.0597 216.803C99.0597 219.29 97.1001 220.779 94.2361 220.779C91.5794 220.779 89.356 219.422 89.0545 216.615H91.2025C91.5228 218.16 92.691 218.763 94.2173 218.763C95.9696 218.763 96.9117 217.915 96.9117 216.615C96.9117 215.503 96.2522 214.73 94.4057 214.73H92.6157V212.846H94.0288C95.6304 212.846 96.4972 212.319 96.4972 211.169C96.4972 209.982 95.5927 209.153 94.01 209.153C92.6722 209.153 91.7301 209.662 91.3721 211.132H89.2241C89.6009 208.399 91.5982 207.137 94.0665 207.137C96.7044 207.137 98.6452 208.701 98.6452 210.905C98.6452 212.111 98.0234 213.148 96.9305 213.619Z" fill="white"/>
</svg>
