<svg width="166" height="226" viewBox="0 0 166 226" fill="none" xmlns="http://www.w3.org/2000/svg">
<path d="M138.959 7.71336C123.891 2.81759 103.984 0.121094 82.9062 0.121094C61.827 0.121094 41.9211 2.81759 26.8535 7.71336C4.65869 14.9256 0 24.5831 0 31.4145V52.0834C0 58.9148 4.65869 68.5732 26.8535 75.7845C36.3433 78.8682 47.754 81.0772 60.1665 82.2918C63.0918 104.175 63.8607 120.745 62.4723 139.833C44.0233 144.532 32.3308 155.183 32.3308 167.658C32.3308 184.652 54.546 197.963 82.9062 197.963C111.266 197.963 133.482 184.651 133.482 167.658C133.482 155.171 121.764 144.509 103.283 139.819C101.837 120.735 102.626 104.711 105.642 82.2927C118.056 81.0781 129.467 78.869 138.957 75.7854C161.152 68.5732 165.811 58.9157 165.811 52.0843V31.4145C165.812 24.5822 161.152 14.9247 138.959 7.71336ZM30.8508 19.9874C44.6615 15.5001 63.1478 13.0282 82.9062 13.0282C102.664 13.0282 121.15 15.5001 134.962 19.9874C148.116 24.2617 152.89 29.1628 152.89 31.4145C152.89 33.6661 148.116 38.5672 134.962 42.8424C121.151 47.3297 102.664 49.8016 82.9062 49.8016C63.1487 49.8016 44.6624 47.3297 30.8508 42.8424C17.6961 38.5681 12.9218 33.667 12.9218 31.4145C12.9218 29.1619 17.697 24.2617 30.8508 19.9874ZM120.56 167.657C120.56 175.87 104.456 185.055 82.9053 185.055C61.355 185.055 45.2518 175.87 45.2518 167.657C45.2518 162.396 51.6002 157.042 61.1469 153.705C60.6785 157.753 60.1292 161.963 59.4963 166.404C59.1621 168.745 60.1363 171.08 62.0341 172.491C65.8376 175.32 74.371 176.733 82.9044 176.733C91.4378 176.733 99.9738 175.319 103.776 172.491C105.673 171.078 106.647 168.743 106.313 166.404C105.674 161.931 105.12 157.72 104.647 153.698C114.205 157.035 120.56 162.396 120.56 167.657ZM92.8164 163.134C87.5231 164.115 78.2377 164.115 72.9888 163.15C77.0039 133.106 77.1106 112.697 73.3141 83.1824C76.4768 83.3076 79.6733 83.3786 82.9044 83.3786C86.1328 83.3786 89.3302 83.3076 92.4929 83.1833C88.6422 112.977 88.7471 132.769 92.8164 163.134ZM134.962 63.5105C121.15 67.9987 102.664 70.4697 82.9062 70.4697C63.1487 70.4697 44.6624 67.9978 30.8508 63.5105C17.6961 59.2362 12.9218 54.3351 12.9218 52.0826V49.1099C16.5405 51.2142 21.105 53.2466 26.8535 55.1147C41.9202 60.0104 61.827 62.7069 82.9062 62.7069C103.984 62.7069 123.891 60.0104 138.959 55.1147C144.707 53.2466 149.272 51.2142 152.89 49.1099V52.0826C152.89 54.3351 148.114 59.2362 134.962 63.5105Z" fill="#DDD9D9"/>
<path d="M88.904 34.9857V37.8477H86.177V42.1947H83.126V37.8477L73.379 37.8747V34.9857L81.641 23.2947H86.177V34.9857H88.904ZM76.7 34.9857H83.126V26.1297H82.883L76.7 34.9857Z" fill="white"/>
<path d="M82.9242 214.851C80.7762 214.851 79.0804 213.193 79.0804 211.064C79.0804 208.916 80.7762 207.258 82.9242 207.258C85.0345 207.258 86.7492 208.916 86.7492 211.064C86.7492 213.212 85.0534 214.851 82.9242 214.851ZM75.4627 213.005V207.484H77.6107V220.674H75.0859L68.4723 210.48L68.6796 215.153V220.674H66.5504V207.484H69.0753L75.6512 217.659L75.4627 213.005ZM82.9242 209.029C81.7748 209.029 80.8893 209.934 80.8893 211.064C80.8893 212.214 81.7748 213.099 82.9242 213.099C84.0547 213.099 84.9215 212.214 84.9215 211.064C84.9215 209.934 84.0547 209.029 82.9242 209.029ZM79.3254 217.602V215.982H86.5231V217.602H79.3254ZM79.3254 220.674V219.053H86.5231V220.674H79.3254ZM99.7003 215.643V217.64H97.7973V220.674H95.6681V217.64L88.8661 217.659V215.643L94.6318 207.484H97.7973V215.643H99.7003ZM91.1837 215.643H95.6681V209.463H95.4985L91.1837 215.643Z" fill="white"/>
</svg>
