<svg width="166" height="226" viewBox="0 0 166 226" fill="none" xmlns="http://www.w3.org/2000/svg">
<path d="M139.064 7.59227C123.997 2.69649 104.09 0 83.0116 0C61.9324 0 42.0266 2.69649 26.9589 7.59227C4.76416 14.8045 0.105469 24.462 0.105469 31.2934V51.9624C0.105469 58.7937 4.76416 68.4521 26.9589 75.6635C36.4487 78.7471 47.8595 80.9561 60.272 82.1707C63.1973 104.054 63.9662 120.624 62.5778 139.712C44.1288 144.411 32.4363 155.062 32.4363 167.537C32.4363 184.531 54.6515 197.842 83.0116 197.842C111.372 197.842 133.588 184.53 133.588 167.537C133.588 155.05 121.87 144.388 103.389 139.697C101.942 120.614 102.732 104.59 105.748 82.1716C118.161 80.957 129.573 78.748 139.063 75.6643C161.257 68.4521 165.916 58.7946 165.916 51.9632V31.2934C165.918 24.4611 161.257 14.8036 139.064 7.59227ZM30.9563 19.8663C44.767 15.379 63.2533 12.9071 83.0116 12.9071C102.77 12.9071 121.255 15.379 135.067 19.8663C148.222 24.1406 152.996 29.0417 152.996 31.2934C152.996 33.545 148.222 38.4461 135.067 42.7213C121.256 47.2086 102.769 49.6805 83.0116 49.6805C63.2542 49.6805 44.7679 47.2086 30.9563 42.7213C17.8015 38.447 13.0273 33.5459 13.0273 31.2934C13.0273 29.0408 17.8024 24.1406 30.9563 19.8663ZM120.665 167.536C120.665 175.749 104.562 184.934 83.0107 184.934C61.4604 184.934 45.3572 175.749 45.3572 167.536C45.3572 162.275 51.7057 156.921 61.2524 153.584C60.784 157.632 60.2346 161.842 59.6017 166.283C59.2675 168.624 60.2417 170.959 62.1395 172.37C65.9431 175.199 74.4765 176.612 83.0098 176.612C91.5432 176.612 100.079 175.198 103.881 172.37C105.779 170.957 106.752 168.622 106.419 166.283C105.78 161.81 105.226 157.599 104.752 153.577C114.31 156.914 120.665 162.274 120.665 167.536ZM92.9219 163.013C87.6285 163.993 78.3432 163.993 73.0942 163.029C77.1094 132.985 77.216 112.576 73.4196 83.0613C76.5823 83.1865 79.7787 83.2575 83.0098 83.2575C86.2383 83.2575 89.4357 83.1865 92.5983 83.0622C88.7477 112.856 88.8525 132.648 92.9219 163.013ZM135.067 63.3894C121.255 67.8776 102.769 70.3486 83.0116 70.3486C63.2542 70.3486 44.7679 67.8767 30.9563 63.3894C17.8015 59.1151 13.0273 54.214 13.0273 51.9615V48.9888C16.646 51.0931 21.2105 53.1255 26.9589 54.9936C42.0257 59.8894 61.9324 62.5858 83.0116 62.5858C104.09 62.5858 123.997 59.8894 139.064 54.9936C144.813 53.1255 149.377 51.0931 152.996 48.9888V51.9615C152.995 54.214 148.22 59.1151 135.067 63.3894Z" fill="#DDD9D9"/>
<path d="M79.207 38.084H88.549V41H74.212V38.813L79.693 34.007C83.932 30.308 85.012 29.363 85.012 27.689C85.012 26.042 83.743 24.692 81.421 24.692C79.126 24.692 77.857 26.015 77.452 28.175H74.374C74.806 24.233 77.641 21.776 81.556 21.776C85.579 21.776 88.09 24.368 88.09 27.554C88.09 30.416 86.092 32.117 82.231 35.492L79.261 38.057L79.207 38.084Z" fill="white"/>
<path d="M83.0292 214.73C80.8812 214.73 79.1854 213.072 79.1854 210.943C79.1854 208.795 80.8812 207.137 83.0292 207.137C85.1395 207.137 86.8541 208.795 86.8541 210.943C86.8541 213.091 85.1584 214.73 83.0292 214.73ZM75.5677 212.884V207.363H77.7157V220.553H75.1909L68.5773 210.359L68.7846 215.032V220.553H66.6554V207.363H69.1802L75.7561 217.538L75.5677 212.884ZM83.0292 208.908C81.8798 208.908 80.9942 209.813 80.9942 210.943C80.9942 212.093 81.8798 212.978 83.0292 212.978C84.1597 212.978 85.0265 212.093 85.0265 210.943C85.0265 209.813 84.1597 208.908 83.0292 208.908ZM79.4304 217.481V215.861H86.628V217.481H79.4304ZM79.4304 220.553V218.932H86.628V220.553H79.4304ZM94.7933 211.621C97.0543 211.621 99.2023 213.129 99.2023 215.974C99.2023 218.876 96.979 220.779 94.1715 220.779C91.4394 220.779 89.1595 218.951 89.1595 215.955C89.1595 213.468 90.8176 211.452 93.8889 207.363H96.3949L92.7395 212.149C93.3425 211.829 93.9642 211.621 94.7933 211.621ZM94.1715 218.744C95.8108 218.744 97.0543 217.67 97.0543 215.974C97.0543 214.259 95.7919 213.261 94.1903 213.261C92.5134 213.261 91.3075 214.297 91.3075 215.993C91.3075 217.689 92.5699 218.744 94.1715 218.744Z" fill="white"/>
</svg>
