<svg width="166" height="226" viewBox="0 0 166 226" fill="none" xmlns="http://www.w3.org/2000/svg">
<path d="M138.953 7.59227C123.886 2.69649 103.979 0 82.9008 0C61.8216 0 41.9157 2.69649 26.8481 7.59227C4.65332 14.8045 -0.00537109 24.462 -0.00537109 31.2934V51.9624C-0.00537109 58.7937 4.65332 68.4521 26.8481 75.6635C36.3379 78.7471 47.7486 80.9561 60.1611 82.1707C63.0865 104.054 63.8554 120.624 62.4669 139.712C44.0179 144.411 32.3254 155.062 32.3254 167.537C32.3254 184.531 54.5407 197.842 82.9008 197.842C111.261 197.842 133.477 184.53 133.477 167.537C133.477 155.05 121.759 144.388 103.278 139.697C101.832 120.614 102.621 104.59 105.637 82.1716C118.05 80.957 129.462 78.748 138.952 75.6643C161.146 68.4521 165.805 58.7946 165.805 51.9632V31.2934C165.807 24.4611 161.146 14.8036 138.953 7.59227ZM30.8454 19.8663C44.6562 15.379 63.1425 12.9071 82.9008 12.9071C102.659 12.9071 121.145 15.379 134.956 19.8663C148.111 24.1406 152.885 29.0417 152.885 31.2934C152.885 33.545 148.111 38.4461 134.956 42.7213C121.145 47.2086 102.658 49.6805 82.9008 49.6805C63.1434 49.6805 44.6571 47.2086 30.8454 42.7213C17.6907 38.447 12.9165 33.5459 12.9165 31.2934C12.9165 29.0408 17.6916 24.1406 30.8454 19.8663ZM120.554 167.536C120.554 175.749 104.451 184.934 82.8999 184.934C61.3496 184.934 45.2464 175.749 45.2464 167.536C45.2464 162.275 51.5949 156.921 61.1416 153.584C60.6731 157.632 60.1238 161.842 59.4909 166.283C59.1567 168.624 60.1309 170.959 62.0287 172.37C65.8323 175.199 74.3656 176.612 82.899 176.612C91.4324 176.612 99.9684 175.198 103.77 172.37C105.668 170.957 106.641 168.622 106.308 166.283C105.669 161.81 105.115 157.599 104.641 153.577C114.2 156.914 120.554 162.274 120.554 167.536ZM92.8111 163.013C87.5177 163.993 78.2323 163.993 72.9834 163.029C76.9985 132.985 77.1052 112.576 73.3087 83.0613C76.4714 83.1865 79.6679 83.2575 82.899 83.2575C86.1275 83.2575 89.3248 83.1865 92.4875 83.0622C88.6368 112.856 88.7417 132.648 92.8111 163.013ZM134.956 63.3894C121.145 67.8776 102.658 70.3486 82.9008 70.3486C63.1434 70.3486 44.6571 67.8767 30.8454 63.3894C17.6907 59.1151 12.9165 54.214 12.9165 51.9615V48.9888C16.5351 51.0931 21.0996 53.1255 26.8481 54.9936C41.9148 59.8894 61.8216 62.5858 82.9008 62.5858C103.979 62.5858 123.886 59.8894 138.953 54.9936C144.702 53.1255 149.266 51.0931 152.885 48.9888V51.9615C152.884 54.214 148.109 59.1151 134.956 63.3894Z" fill="#DDD9D9"/>
<path d="M82.1746 28.202C85.4146 28.202 88.4926 30.362 88.4926 34.439C88.4926 38.597 85.3066 41.324 81.2836 41.324C77.3686 41.324 74.1016 38.705 74.1016 34.412C74.1016 30.848 76.4776 27.959 80.8786 22.1H84.4696L79.2316 28.958C80.0956 28.499 80.9866 28.202 82.1746 28.202ZM81.2836 38.408C83.6326 38.408 85.4146 36.869 85.4146 34.439C85.4146 31.982 83.6056 30.551 81.3106 30.551C78.9076 30.551 77.1796 32.036 77.1796 34.466C77.1796 36.896 78.9886 38.408 81.2836 38.408Z" fill="white"/>
<path d="M83.9188 214.73C81.7708 214.73 80.0751 213.072 80.0751 210.943C80.0751 208.795 81.7708 207.137 83.9188 207.137C86.0292 207.137 87.7438 208.795 87.7438 210.943C87.7438 213.091 86.048 214.73 83.9188 214.73ZM76.4574 212.884V207.363H78.6054V220.553H76.0805L69.4669 210.359L69.6742 215.032V220.553H67.5451V207.363H70.0699L76.6458 217.538L76.4574 212.884ZM83.9188 208.908C82.7695 208.908 81.8839 209.813 81.8839 210.943C81.8839 212.093 82.7695 212.978 83.9188 212.978C85.0494 212.978 85.9161 212.093 85.9161 210.943C85.9161 209.813 85.0494 208.908 83.9188 208.908ZM80.32 217.481V215.861H87.5177V217.481H80.32ZM80.32 220.553V218.932H87.5177V220.553H80.32ZM89.8607 207.363H99.0557V208.927L93.3277 220.553H90.9159L96.512 209.398H89.8607V207.363Z" fill="white"/>
</svg>
