<svg width="166" height="226" viewBox="0 0 166 226" fill="none" xmlns="http://www.w3.org/2000/svg">
<path d="M139.154 7.59227C124.086 2.69649 104.179 0 83.101 0C62.0218 0 42.1159 2.69649 27.0483 7.59227C4.85351 14.8045 0.194824 24.462 0.194824 31.2934V51.9624C0.194824 58.7937 4.85351 68.4521 27.0483 75.6635C36.5381 78.7471 47.9488 80.9561 60.3613 82.1707C63.2867 104.054 64.0556 120.624 62.6671 139.712C44.2181 144.411 32.5256 155.062 32.5256 167.537C32.5256 184.531 54.7409 197.842 83.101 197.842C111.461 197.842 133.677 184.53 133.677 167.537C133.677 155.05 121.959 144.388 103.478 139.697C102.032 120.614 102.821 104.59 105.837 82.1716C118.25 80.957 129.662 78.748 139.152 75.6643C161.347 68.4521 166.005 58.7946 166.005 51.9632V31.2934C166.007 24.4611 161.347 14.8036 139.154 7.59227ZM31.0456 19.8663C44.8564 15.379 63.3427 12.9071 83.101 12.9071C102.859 12.9071 121.345 15.379 135.156 19.8663C148.311 24.1406 153.085 29.0417 153.085 31.2934C153.085 33.545 148.311 38.4461 135.156 42.7213C121.346 47.2086 102.858 49.6805 83.101 49.6805C63.3436 49.6805 44.8573 47.2086 31.0456 42.7213C17.8909 38.447 13.1167 33.5459 13.1167 31.2934C13.1167 29.0408 17.8918 24.1406 31.0456 19.8663ZM120.754 167.536C120.754 175.749 104.651 184.934 83.1001 184.934C61.5498 184.934 45.4466 175.749 45.4466 167.536C45.4466 162.275 51.7951 156.921 61.3418 153.584C60.8733 157.632 60.324 161.842 59.6911 166.283C59.3569 168.624 60.3311 170.959 62.2289 172.37C66.0325 175.199 74.5658 176.612 83.0992 176.612C91.6326 176.612 100.169 175.198 103.97 172.37C105.868 170.957 106.842 168.622 106.508 166.283C105.869 161.81 105.315 157.599 104.842 153.577C114.4 156.914 120.754 162.274 120.754 167.536ZM93.0112 163.013C87.7179 163.993 78.4325 163.993 73.1836 163.029C77.1987 132.985 77.3054 112.576 73.5089 83.0613C76.6716 83.1865 79.8681 83.2575 83.0992 83.2575C86.3277 83.2575 89.525 83.1865 92.6877 83.0622C88.837 112.856 88.9419 132.648 93.0112 163.013ZM135.156 63.3894C121.345 67.8776 102.858 70.3486 83.101 70.3486C63.3436 70.3486 44.8573 67.8767 31.0456 63.3894C17.8909 59.1151 13.1167 54.214 13.1167 51.9615V48.9888C16.7353 51.0931 21.2998 53.1255 27.0483 54.9936C42.115 59.8894 62.0218 62.5858 83.101 62.5858C104.179 62.5858 124.086 59.8894 139.154 54.9936C144.902 53.1255 149.467 51.0931 153.085 48.9888V51.9615C153.084 54.214 148.309 59.1151 135.156 63.3894Z" fill="#DDD9D9"/>
<path d="M79.7812 38.2155H89.1232V41.1315H74.7862V38.9445L80.2672 34.1385C84.5062 30.4395 85.5862 29.4945 85.5862 27.8205C85.5862 26.1735 84.3172 24.8235 81.9952 24.8235C79.7002 24.8235 78.4312 26.1465 78.0262 28.3065H74.9482C75.3802 24.3645 78.2152 21.9075 82.1302 21.9075C86.1532 21.9075 88.6642 24.4995 88.6642 27.6855C88.6642 30.5475 86.6662 32.2485 82.8052 35.6235L79.8352 38.1885L79.7812 38.2155Z" fill="white"/>
<path d="M81.9188 214.73C79.7708 214.73 78.0751 213.072 78.0751 210.943C78.0751 208.795 79.7708 207.137 81.9188 207.137C84.0292 207.137 85.7438 208.795 85.7438 210.943C85.7438 213.091 84.048 214.73 81.9188 214.73ZM74.4574 212.884V207.363H76.6054V220.553H74.0805L67.4669 210.359L67.6742 215.032V220.553H65.5451V207.363H68.0699L74.6458 217.538L74.4574 212.884ZM81.9188 208.908C80.7695 208.908 79.8839 209.813 79.8839 210.943C79.8839 212.093 80.7695 212.978 81.9188 212.978C83.0494 212.978 83.9161 212.093 83.9161 210.943C83.9161 209.813 83.0494 208.908 81.9188 208.908ZM78.32 217.481V215.861H85.5177V217.481H78.32ZM78.32 220.553V218.932H85.5177V220.553H78.32ZM95.7744 213.638C97.2064 214.146 97.9789 215.39 97.9789 216.897C97.9789 219.309 95.8309 220.779 93.0235 220.779C90.1972 220.779 88.0492 219.309 88.0492 216.897C88.0492 215.39 88.8217 214.146 90.2537 213.638C89.1232 213.148 88.4637 212.093 88.4637 210.83C88.4637 208.626 90.4421 207.137 93.0235 207.137C95.586 207.137 97.5644 208.626 97.5644 210.83C97.5644 212.093 96.9049 213.148 95.7744 213.638ZM93.0235 209.153C91.4784 209.153 90.5928 209.907 90.5928 211.094C90.5928 212.093 91.2523 212.827 93.0235 212.827C94.7758 212.827 95.4353 212.093 95.4353 211.094C95.4353 209.907 94.5497 209.153 93.0235 209.153ZM93.0235 218.763C94.7381 218.763 95.8498 218.047 95.8498 216.709C95.8498 215.315 94.8512 214.674 93.0235 214.674C91.1769 214.674 90.1783 215.333 90.1783 216.709C90.1783 218.047 91.29 218.763 93.0235 218.763Z" fill="white"/>
</svg>
