<svg width="166" height="227" viewBox="0 0 166 227" fill="none" xmlns="http://www.w3.org/2000/svg">
<path d="M79.5864 38.105H88.9284V41.021H74.5914V38.834L80.0724 34.028C84.3114 30.329 85.3914 29.384 85.3914 27.71C85.3914 26.063 84.1224 24.713 81.8004 24.713C79.5054 24.713 78.2364 26.036 77.8314 28.196H74.7534C75.1854 24.254 78.0204 21.797 81.9354 21.797C85.9584 21.797 88.4694 24.389 88.4694 27.575C88.4694 30.437 86.4714 32.138 82.6104 35.513L79.6404 38.078L79.5864 38.105Z" fill="white"/>
<path d="M138.959 8.42381C123.891 3.52804 103.984 0.831543 82.9062 0.831543C61.827 0.831543 41.9211 3.52804 26.8535 8.42381C4.65869 15.6361 0 25.2936 0 32.1249V52.7939C0 59.6253 4.65869 69.2836 26.8535 76.495C36.3433 79.5786 47.754 81.7877 60.1665 83.0023C63.0918 104.886 63.8607 121.456 62.4723 140.543C44.0233 145.243 32.3308 155.894 32.3308 168.368C32.3308 185.363 54.546 198.674 82.9062 198.674C111.266 198.674 133.482 185.362 133.482 168.368C133.482 155.881 121.764 145.22 103.283 140.529C101.837 121.446 102.626 105.421 105.642 83.0032C118.056 81.7885 129.467 79.5795 138.957 76.4959C161.152 69.2836 165.811 59.6261 165.811 52.7948V32.1249C165.812 25.2927 161.152 15.6352 138.959 8.42381ZM30.8508 20.6979C44.6615 16.2105 63.1478 13.7387 82.9062 13.7387C102.664 13.7387 121.15 16.2105 134.962 20.6979C148.116 24.9721 152.89 29.8732 152.89 32.1249C152.89 34.3766 148.116 39.2777 134.962 43.5528C121.151 48.0402 102.664 50.512 82.9062 50.512C63.1487 50.512 44.6624 48.0402 30.8508 43.5528C17.6961 39.2786 12.9218 34.3775 12.9218 32.1249C12.9218 29.8724 17.697 24.9721 30.8508 20.6979ZM120.56 168.368C120.56 176.581 104.456 185.766 82.9053 185.766C61.355 185.766 45.2518 176.581 45.2518 168.368C45.2518 163.107 51.6002 157.752 61.1469 154.415C60.6785 158.463 60.1292 162.674 59.4963 167.115C59.1621 169.455 60.1363 171.79 62.0341 173.201C65.8376 176.031 74.371 177.444 82.9044 177.444C91.4378 177.444 99.9738 176.029 103.776 173.201C105.673 171.789 106.647 169.453 106.313 167.115C105.674 162.642 105.12 158.43 104.647 154.408C114.205 157.746 120.56 163.106 120.56 168.368ZM92.8164 163.845C87.5231 164.825 78.2377 164.825 72.9888 163.861C77.0039 133.817 77.1106 113.408 73.3141 83.8928C76.4768 84.018 79.6733 84.089 82.9044 84.089C86.1328 84.089 89.3302 84.018 92.4929 83.8937C88.6422 113.687 88.7471 133.479 92.8164 163.845ZM134.962 64.2209C121.15 68.7092 102.664 71.1801 82.9062 71.1801C63.1487 71.1801 44.6624 68.7083 30.8508 64.2209C17.6961 59.9467 12.9218 55.0456 12.9218 52.793V49.8204C16.5405 51.9247 21.105 53.957 26.8535 55.8251C41.9202 60.7209 61.827 63.4174 82.9062 63.4174C103.984 63.4174 123.891 60.7209 138.959 55.8251C144.707 53.957 149.272 51.9247 152.89 49.8204V52.793C152.89 55.0456 148.114 59.9467 134.962 64.2209Z" fill="#DDD9D9"/>
<path d="M82.9242 215.562C80.7762 215.562 79.0804 213.904 79.0804 211.775C79.0804 209.627 80.7762 207.969 82.9242 207.969C85.0345 207.969 86.7492 209.627 86.7492 211.775C86.7492 213.923 85.0534 215.562 82.9242 215.562ZM75.4627 213.716V208.195H77.6107V221.384H75.0859L68.4723 211.191L68.6796 215.864V221.384H66.5504V208.195H69.0753L75.6512 218.37L75.4627 213.716ZM82.9242 209.74C81.7748 209.74 80.8893 210.644 80.8893 211.775C80.8893 212.924 81.7748 213.81 82.9242 213.81C84.0547 213.81 84.9215 212.924 84.9215 211.775C84.9215 210.644 84.0547 209.74 82.9242 209.74ZM79.3254 218.313V216.693H86.5231V218.313H79.3254ZM79.3254 221.384V219.764H86.5231V221.384H79.3254ZM94.0854 207.969C96.8175 207.969 99.0974 209.796 99.0974 212.792C99.0974 215.279 97.4393 217.296 94.368 221.384H91.862L95.5174 216.598C94.9144 216.919 94.2926 217.126 93.4636 217.126C91.2025 217.126 89.0545 215.619 89.0545 212.773C89.0545 209.872 91.2779 207.969 94.0854 207.969ZM94.0665 215.487C95.7435 215.487 96.9494 214.45 96.9494 212.755C96.9494 211.059 95.6869 210.004 94.0854 210.004C92.4461 210.004 91.2025 211.078 91.2025 212.773C91.2025 214.488 92.4649 215.487 94.0665 215.487Z" fill="white"/>
</svg>
