<svg width="171" height="179" viewBox="0 0 171 179" fill="none" xmlns="http://www.w3.org/2000/svg">
<path d="M163.583 79.7682C164.539 82.031 164.611 84.2578 164.936 87.3681C165.26 90.3882 165.405 92.8494 165.423 93.3542C166.848 129.199 145.625 151.602 145.625 151.602C125.376 172.842 98.2909 173.599 87.0076 173.915C78.0964 174.167 63.1692 174.402 46.9523 166.08C17.3685 150.899 9.6028 120.662 7.90714 114.071C7.90714 114.071 4.18212 102.983 5.16523 88.4589C5.63424 81.5262 6.97814 77.2349 10.2071 74.7828C11.3796 73.8993 12.4169 73.3133 17.3415 71.9429C31.7455 67.9402 37.7254 68.1655 44.1112 62.7113C44.9229 62.0171 45.4911 61.5033 45.9872 60.9353C48.233 58.3569 49.4146 54.7057 56.4858 41.5615C63.5571 28.3991 64.3688 29.6703 66.8492 22.9179C69.3115 16.2195 69.2754 12.8838 72.8381 9.56622C77.1043 5.5995 84.4461 3.59811 86.8813 6.11337C90.1013 9.43099 82.4979 17.9504 87.4405 28.4442C87.7562 29.1113 87.9997 29.5801 88.2072 29.8867C89.8217 32.3118 93.5557 34.7189 108.293 42.9408C111.892 44.9422 124.059 49.1703 135.37 58.0594C143.442 64.4062 143.749 67.0116 149.747 69.1753C153.806 70.6447 159.019 71.393 161.95 75.8466C162.681 76.9645 162.987 77.9111 163.565 79.7592L163.583 79.7682Z" stroke="#EFEFEF" stroke-width="9.34171" stroke-linecap="round" stroke-linejoin="round"/>
<path d="M5.16553 88.45C16.7284 91.3619 29.2564 93.8591 42.6774 95.6441C90.787 102.036 132.755 96.8973 164.386 89.6941" stroke="#EFEFEF" stroke-width="9.34171" stroke-linecap="round" stroke-linejoin="round"/>
<path d="M56.8828 97.2218C60.8874 108.139 71.332 115.397 82.8317 115.288C93.8986 115.18 103.901 108.284 108.014 97.8799" stroke="#EFEFEF" stroke-width="9.34171" stroke-linecap="round" stroke-linejoin="round"/>
<path d="M54.3932 146.761C54.321 149.853 54.5014 153.432 55.1959 157.336C55.9896 161.789 56.4677 164.449 58.461 167.117C59.3809 168.352 61.9154 171.327 67.2549 172.824" stroke="#EFEFEF" stroke-width="9.34171" stroke-linecap="round" stroke-linejoin="round"/>
<path d="M143.027 93.8953C142.378 89.9285 140.159 79.9216 131.536 72.0242C120.199 61.6476 105.984 62.4049 101.411 62.6573C90.5339 63.2433 82.5427 67.5797 78.6914 70.0228" stroke="#EFEFEF" stroke-width="9.34171" stroke-linecap="round" stroke-linejoin="round"/>
<path d="M95.883 62.3867C95.6124 61.6114 95.2155 60.5296 94.6563 59.2584C94.4218 58.7175 92.672 54.7868 89.7768 50.8832C84.6447 43.9505 80.2703 42.9588 74.0108 34.8811C69.7356 29.3727 68.969 26.2174 68.7164 24.8651C67.8866 20.5288 68.8247 16.8054 69.5913 14.6057" stroke="#EFEFEF" stroke-width="9.34171" stroke-linecap="round" stroke-linejoin="round"/>
<path d="M64.9101 64.6857C65.1807 60.737 65.0634 54.6787 62.7184 47.8812C62.2403 46.4838 60.9416 45.0053 60.4184 42.472C59.5886 38.4332 60.7251 34.782 61.8074 32.3208" stroke="#EFEFEF" stroke-width="9.34171" stroke-linecap="round" stroke-linejoin="round"/>
</svg>
