<svg width="115" height="138" viewBox="0 0 115 138" fill="none" xmlns="http://www.w3.org/2000/svg">
<path d="M96.3767 5.29581C85.9263 1.88088 72.1198 0 57.5006 0C42.8809 0 29.0749 1.88088 18.6246 5.29581C3.23109 10.3265 0 17.0629 0 21.8279V36.2451C0 41.0101 3.23109 47.7471 18.6246 52.7772C25.2063 54.9281 33.1204 56.469 41.7292 57.3162C43.7582 72.5806 44.2914 84.1384 43.3285 97.4525C30.5329 100.731 22.4234 108.16 22.4234 116.861C22.4234 128.715 37.8311 138 57.5006 138C77.1702 138 92.5784 128.715 92.5784 116.861C92.5784 108.151 84.451 100.714 71.6333 97.4426C70.6303 84.1315 71.1777 72.954 73.2695 57.3168C81.879 56.4696 89.7937 54.9287 96.3755 52.7778C111.769 47.7471 115 41.0108 115 36.2457V21.8279C115.001 17.0623 111.769 10.3259 96.3767 5.29581ZM21.397 13.8573C30.9756 10.7272 43.797 9.00306 57.5006 9.00306C71.2042 9.00306 84.025 10.7272 93.6043 13.8573C102.728 16.8387 106.039 20.2573 106.039 21.8279C106.039 23.3985 102.728 26.8172 93.6043 29.7992C84.0257 32.9293 71.2036 34.6534 57.5006 34.6534C43.7976 34.6534 30.9762 32.9293 21.397 29.7992C12.2733 26.8178 8.9621 23.3992 8.9621 21.8279C8.9621 20.2567 12.274 16.8387 21.397 13.8573ZM83.6157 116.861C83.6157 122.589 72.4471 128.996 57.5 128.996C42.5535 128.996 31.3849 122.589 31.3849 116.861C31.3849 113.191 35.788 109.456 42.4092 107.129C42.0843 109.952 41.7033 112.889 41.2644 115.987C41.0326 117.619 41.7083 119.248 43.0245 120.232C45.6625 122.206 51.581 123.191 57.4994 123.191C63.4178 123.191 69.3381 122.205 71.9749 120.232C73.2911 119.247 73.9662 117.618 73.735 115.987C73.2917 112.867 72.9077 109.929 72.5791 107.124C79.2083 109.452 83.6157 113.191 83.6157 116.861ZM64.374 113.706C60.7027 114.39 54.2627 114.39 50.6223 113.717C53.407 92.7605 53.481 78.5248 50.8479 57.9374C53.0415 58.0247 55.2584 58.0743 57.4994 58.0743C59.7385 58.0743 61.9561 58.0247 64.1496 57.938C61.4789 78.7199 61.5517 92.5252 64.374 113.706ZM93.6043 44.2157C84.025 47.3464 71.2036 49.07 57.5006 49.07C43.7976 49.07 30.9762 47.3458 21.397 44.2157C12.2733 41.2343 8.9621 37.8157 8.9621 36.2445V34.171C11.4719 35.6388 14.6376 37.0564 18.6246 38.3594C29.0743 41.7744 42.8809 43.6553 57.5006 43.6553C72.1198 43.6553 85.9263 41.7744 96.3767 38.3594C100.364 37.0564 103.529 35.6388 106.039 34.171V36.2445C106.039 37.8157 102.727 41.2343 93.6043 44.2157Z" fill="#EFEFEF"/>
</svg>
