<svg width="22" height="22" viewBox="0 0 22 22" fill="none" xmlns="http://www.w3.org/2000/svg">
<path d="M14.377 0H7.623C1.463 0 0 1.463 0 7.623V14.377C0 20.537 1.463 22 7.623 22H14.377C20.537 22 22 20.537 22 14.377V7.623C22 1.463 20.537 0 14.377 0ZM17.765 15.697H16.159C15.554 15.697 15.367 15.202 14.3 14.113C13.332 13.2 12.914 13.068 12.683 13.068C12.364 13.068 12.265 13.156 12.265 13.618V15.059C12.265 15.444 12.144 15.686 11.121 15.686C9.427 15.686 7.546 14.652 6.226 12.749C4.235 9.955 3.696 7.843 3.696 7.425C3.696 7.194 3.773 6.974 4.235 6.974H5.852C6.259 6.974 6.413 7.15 6.567 7.59C7.359 9.9 8.679 11.88 9.218 11.88C9.427 11.88 9.515 11.781 9.515 11.275V8.91C9.46 7.832 8.877 7.733 8.877 7.348C8.877 7.15 9.031 6.974 9.284 6.974H11.803C12.144 6.974 12.265 7.15 12.265 7.568V10.747C12.265 11.088 12.408 11.209 12.518 11.209C12.716 11.209 12.892 11.088 13.255 10.714C14.41 9.427 15.235 7.436 15.235 7.436C15.345 7.205 15.521 6.985 15.95 6.985H17.523C18.007 6.985 18.117 7.238 18.007 7.579C17.809 8.514 15.851 11.275 15.873 11.275C15.697 11.55 15.631 11.671 15.873 11.99C16.038 12.221 16.599 12.705 16.973 13.134C17.655 13.915 18.183 14.564 18.326 15.015C18.447 15.466 18.227 15.697 17.765 15.697Z" fill="#EFEFEF"/>
</svg>
